<svg id="svg" version="1.1" xmlns="http://www.w3.org/2000/svg" xmlns:xlink="http://www.w3.org/1999/xlink" width="400" height="400" viewBox="0, 0, 400,400"><g id="svgg"><path id="path0" d="M193.000 66.394 C 191.900 66.579,189.815 66.746,188.367 66.765 C 186.918 66.784,184.758 66.969,183.567 67.176 C 182.375 67.383,180.050 67.761,178.400 68.018 C 172.503 68.933,159.970 71.897,159.342 72.524 C 159.191 72.676,158.734 72.800,158.328 72.800 C 157.922 72.800,157.232 72.980,156.795 73.200 C 156.358 73.420,155.642 73.780,155.205 74.000 C 154.768 74.220,154.059 74.400,153.629 74.400 C 153.199 74.400,152.736 74.580,152.600 74.800 C 152.464 75.020,152.020 75.200,151.614 75.200 C 150.976 75.200,149.798 75.692,146.705 77.250 C 146.323 77.443,145.738 77.600,145.405 77.600 C 145.072 77.600,144.800 77.780,144.800 78.000 C 144.800 78.220,144.545 78.400,144.233 78.400 C 143.428 78.400,134.274 83.270,129.600 86.185 C 126.447 88.152,122.364 90.837,121.704 91.378 C 121.317 91.696,119.830 92.817,118.400 93.870 C 116.970 94.923,115.602 95.968,115.361 96.193 C 115.119 96.417,113.859 97.495,112.561 98.588 C 106.806 103.434,96.302 114.610,93.188 119.200 C 92.666 119.970,92.128 120.690,91.993 120.800 C 91.858 120.910,91.141 121.900,90.400 123.000 C 89.659 124.100,88.951 125.090,88.826 125.200 C 88.702 125.310,88.340 125.850,88.022 126.400 C 87.705 126.950,86.286 129.284,84.870 131.587 C 82.725 135.074,77.533 145.274,76.413 148.200 C 75.505 150.572,74.411 153.195,73.953 154.095 C 73.759 154.477,73.600 155.116,73.600 155.515 C 73.600 155.914,73.451 156.411,73.270 156.620 C 73.088 156.829,72.702 157.810,72.412 158.800 C 72.122 159.790,71.660 161.320,71.385 162.200 C 70.405 165.338,68.591 173.333,67.619 178.800 C 65.660 189.816,65.647 211.156,67.593 221.600 C 68.652 227.284,69.219 229.803,70.791 235.800 C 71.764 239.508,74.539 247.720,75.793 250.600 C 76.080 251.260,76.708 252.700,77.187 253.800 C 79.155 258.316,83.818 267.105,85.995 270.400 C 86.795 271.610,87.933 273.442,88.525 274.472 C 89.116 275.501,89.831 276.581,90.113 276.872 C 90.396 277.162,91.062 278.030,91.594 278.800 C 92.126 279.570,92.669 280.290,92.800 280.400 C 92.931 280.510,93.477 281.230,94.012 282.000 C 96.004 284.864,102.175 291.697,106.855 296.220 C 111.224 300.443,116.954 305.307,119.800 307.210 C 120.900 307.945,121.890 308.658,122.000 308.793 C 122.110 308.928,122.830 309.471,123.600 310.000 C 124.370 310.529,125.090 311.060,125.200 311.181 C 125.310 311.301,125.850 311.661,126.400 311.980 C 126.950 312.299,129.290 313.703,131.600 315.099 C 135.365 317.375,142.709 321.136,147.600 323.294 C 148.590 323.730,149.713 324.248,150.095 324.444 C 150.477 324.640,151.152 324.800,151.595 324.800 C 152.038 324.800,152.400 324.980,152.400 325.200 C 152.400 325.420,152.762 325.600,153.205 325.600 C 153.648 325.600,154.323 325.759,154.705 325.953 C 155.921 326.572,157.349 327.095,159.200 327.600 C 160.190 327.870,161.360 328.237,161.800 328.415 C 162.240 328.594,163.050 328.828,163.600 328.937 C 164.150 329.045,166.040 329.514,167.800 329.977 C 185.322 334.595,207.548 334.979,228.200 331.022 C 231.384 330.412,242.096 327.390,243.295 326.763 C 243.677 326.563,244.264 326.400,244.600 326.400 C 244.936 326.400,245.523 326.241,245.905 326.047 C 246.592 325.697,247.951 325.127,249.700 324.454 C 253.843 322.859,263.811 317.944,267.951 315.455 C 270.014 314.215,271.786 313.200,271.888 313.200 C 272.083 313.200,276.857 309.953,277.200 309.586 C 277.310 309.469,278.602 308.524,280.071 307.487 C 281.540 306.450,282.980 305.369,283.271 305.086 C 283.562 304.803,285.150 303.503,286.800 302.197 C 294.111 296.414,308.328 280.604,311.168 275.100 C 311.480 274.495,311.885 274.000,312.068 274.000 C 312.250 274.000,312.400 273.807,312.400 273.572 C 312.400 273.337,312.974 272.310,313.675 271.291 C 315.014 269.345,317.426 265.180,319.171 261.800 C 320.665 258.907,323.886 251.653,325.254 248.100 C 325.444 247.605,325.768 246.795,325.974 246.300 C 326.179 245.805,326.561 244.680,326.823 243.800 C 327.084 242.920,327.456 241.887,327.649 241.505 C 327.842 241.123,328.000 240.536,328.000 240.200 C 328.000 239.864,328.171 239.277,328.380 238.895 C 328.985 237.789,330.741 230.645,331.992 224.200 C 333.004 218.985,334.601 201.472,334.134 200.700 C 334.034 200.535,323.523 200.400,310.776 200.400 L 287.600 200.400 287.600 202.984 C 287.600 219.543,279.806 240.602,268.412 254.829 C 262.382 262.359,246.424 276.000,243.647 276.000 C 243.438 276.000,243.207 276.141,243.133 276.313 C 242.686 277.365,231.170 282.250,224.423 284.250 C 220.183 285.507,218.877 285.802,212.800 286.872 C 195.883 289.850,169.684 284.904,156.928 276.325 C 156.008 275.706,155.140 275.200,154.998 275.200 C 154.653 275.200,146.811 269.847,145.800 268.920 C 145.360 268.517,144.460 267.770,143.800 267.261 C 132.869 258.817,120.781 241.037,116.837 227.600 C 116.547 226.610,116.159 225.440,115.975 225.000 C 115.348 223.496,113.459 214.356,112.916 210.200 C 112.510 207.093,112.510 192.907,112.916 189.800 C 114.480 177.822,119.503 163.157,124.767 155.200 C 125.131 154.650,125.676 153.708,125.978 153.107 C 126.281 152.505,126.824 151.695,127.186 151.307 C 127.548 150.918,128.464 149.681,129.222 148.557 C 131.935 144.535,137.489 138.497,142.800 133.794 C 144.871 131.960,151.096 127.200,151.424 127.200 C 151.545 127.200,152.694 126.487,153.978 125.615 C 158.708 122.403,168.133 118.108,174.600 116.219 C 175.920 115.833,177.450 115.376,178.000 115.202 C 178.550 115.028,179.990 114.692,181.200 114.456 C 182.410 114.220,183.940 113.915,184.600 113.779 C 190.202 112.621,203.124 112.081,208.800 112.767 C 214.752 113.486,224.237 115.422,224.980 116.069 C 225.189 116.251,225.711 116.400,226.141 116.400 C 227.004 116.400,235.975 119.874,236.580 120.443 C 238.158 121.926,237.640 122.801,248.791 99.800 C 250.391 96.500,253.208 90.729,255.050 86.976 C 258.931 79.070,258.983 78.400,255.720 78.400 C 255.434 78.400,255.200 78.220,255.200 78.000 C 255.200 77.780,254.928 77.600,254.595 77.600 C 254.262 77.600,253.677 77.443,253.295 77.250 C 250.316 75.749,249.046 75.200,248.557 75.200 C 248.245 75.200,247.632 75.020,247.195 74.800 C 246.758 74.580,246.042 74.220,245.605 74.000 C 245.168 73.780,244.459 73.600,244.029 73.600 C 243.599 73.600,243.136 73.420,243.000 73.200 C 242.864 72.980,242.324 72.800,241.800 72.800 C 241.276 72.800,240.749 72.641,240.629 72.446 C 240.508 72.251,239.913 72.001,239.305 71.890 C 238.697 71.779,236.130 71.136,233.600 70.462 C 226.777 68.643,219.712 67.427,212.200 66.778 C 205.702 66.217,195.289 66.009,193.000 66.394 M239.467 151.867 C 239.320 152.013,239.200 162.903,239.200 176.067 L 239.200 200.000 263.200 200.000 L 287.200 200.000 287.200 175.800 L 287.200 151.600 263.467 151.600 C 250.413 151.600,239.613 151.720,239.467 151.867 " stroke="none" fill="#f2ce88" fill-rule="evenodd"></path><path id="path1" d="M0.000 200.000 L 0.000 400.000 200.000 400.000 L 400.000 400.000 400.000 200.000 L 400.000 0.000 200.000 0.000 L 0.000 0.000 0.000 200.000 M216.986 66.350 C 224.036 67.247,234.539 69.601,241.406 71.823 C 249.234 74.356,258.689 78.446,259.082 79.468 C 259.256 79.924,257.880 82.841,248.155 102.624 C 246.310 106.377,244.800 109.662,244.800 109.924 C 244.800 110.186,244.620 110.400,244.400 110.400 C 244.180 110.400,244.000 110.599,244.000 110.842 C 244.000 111.730,238.986 121.582,238.529 121.591 C 238.271 121.596,235.571 120.622,232.529 119.428 C 225.455 116.648,221.744 115.637,212.400 113.944 C 201.086 111.893,183.177 113.806,170.000 118.473 C 166.367 119.760,156.689 124.340,156.467 124.877 C 156.393 125.055,156.158 125.200,155.945 125.200 C 154.599 125.200,144.208 133.150,139.383 137.870 C 135.969 141.211,134.229 143.151,130.602 147.665 C 129.383 149.182,125.200 155.598,125.200 155.951 C 125.200 156.161,125.051 156.393,124.868 156.467 C 123.917 156.848,118.317 169.494,117.007 174.218 C 114.589 182.937,114.316 184.406,113.408 193.600 C 112.785 199.908,113.027 207.631,114.019 213.100 C 115.286 220.083,115.255 219.943,116.400 224.000 C 118.362 230.959,124.012 243.903,125.653 245.200 C 125.792 245.310,126.332 246.149,126.853 247.065 C 127.374 247.981,128.191 249.241,128.669 249.865 C 129.147 250.489,130.402 252.170,131.459 253.600 C 133.978 257.008,143.097 266.130,146.400 268.544 C 147.830 269.589,149.274 270.668,149.609 270.940 C 151.072 272.132,153.980 274.000,154.372 274.000 C 154.607 274.000,154.800 274.159,154.800 274.353 C 154.800 274.548,155.115 274.807,155.500 274.929 C 156.436 275.225,158.566 276.524,158.733 276.900 C 158.807 277.065,159.086 277.200,159.354 277.200 C 160.063 277.200,161.993 278.149,161.997 278.500 C 161.999 278.665,162.253 278.800,162.562 278.800 C 162.871 278.800,163.906 279.186,164.862 279.657 C 165.818 280.128,166.960 280.651,167.400 280.820 C 167.840 280.988,169.010 281.434,170.000 281.810 C 190.717 289.687,216.760 288.572,236.579 278.960 C 237.667 278.432,238.792 278.000,239.079 278.000 C 239.365 278.000,239.600 277.820,239.600 277.600 C 239.600 277.380,239.960 277.200,240.400 277.200 C 240.840 277.200,241.200 277.041,241.200 276.847 C 241.200 276.652,241.515 276.390,241.900 276.264 C 247.319 274.491,262.403 261.677,268.346 253.800 C 269.507 252.260,270.678 250.726,270.947 250.391 C 272.130 248.918,274.000 246.022,274.000 245.661 C 274.000 245.444,274.135 245.207,274.300 245.133 C 275.127 244.766,280.009 234.763,281.686 230.000 C 282.792 226.861,284.643 220.198,285.160 217.500 C 286.220 211.963,286.379 210.751,286.615 206.400 C 286.753 203.870,286.952 201.486,287.059 201.103 C 287.241 200.447,285.841 200.400,263.126 200.303 L 239.000 200.200 239.000 175.800 L 239.000 151.400 263.200 151.400 L 287.400 151.400 287.600 175.600 L 287.800 199.800 311.200 200.000 L 334.600 200.200 334.730 203.200 C 334.913 207.416,333.757 218.641,332.506 224.800 C 332.171 226.450,331.750 228.520,331.570 229.400 C 331.161 231.403,330.589 233.728,329.994 235.800 C 329.741 236.680,329.438 237.897,329.321 238.505 C 329.204 239.113,328.949 239.708,328.754 239.829 C 328.559 239.949,328.400 240.476,328.400 241.000 C 328.400 241.524,328.220 242.064,328.000 242.200 C 327.780 242.336,327.600 242.876,327.600 243.400 C 327.600 243.924,327.420 244.464,327.200 244.600 C 326.980 244.736,326.800 245.199,326.800 245.629 C 326.800 246.059,326.641 246.723,326.447 247.105 C 326.252 247.487,325.916 248.250,325.700 248.800 C 324.551 251.723,323.985 253.017,321.640 258.075 C 320.958 259.546,320.400 260.835,320.400 260.940 C 320.400 261.780,310.301 278.295,309.234 279.200 C 309.104 279.310,308.188 280.480,307.199 281.800 C 300.494 290.746,292.841 298.381,281.562 307.377 C 280.785 307.997,276.159 311.243,275.253 311.804 C 274.894 312.027,273.520 312.912,272.200 313.772 C 269.432 315.575,263.250 319.118,261.200 320.075 C 253.937 323.469,251.876 324.394,249.800 325.197 C 248.480 325.707,247.229 326.277,247.020 326.462 C 246.811 326.648,246.314 326.800,245.915 326.800 C 245.516 326.800,244.877 326.958,244.495 327.151 C 244.113 327.344,243.080 327.716,242.200 327.977 C 241.320 328.239,240.240 328.600,239.800 328.781 C 239.062 329.083,238.304 329.297,234.100 330.390 C 232.311 330.855,226.280 332.167,223.200 332.761 C 205.136 336.245,183.099 334.974,161.800 329.221 C 160.182 328.783,154.420 326.860,153.300 326.383 C 152.805 326.172,151.995 325.844,151.500 325.654 C 143.959 322.750,130.129 315.637,127.317 313.216 C 127.051 312.987,126.724 312.800,126.589 312.800 C 126.313 312.800,122.709 310.391,122.400 310.000 C 122.290 309.861,121.300 309.141,120.200 308.400 C 119.100 307.659,118.110 306.950,118.000 306.824 C 117.890 306.698,117.141 306.104,116.335 305.504 C 115.529 304.903,114.629 304.184,114.335 303.906 C 114.041 303.628,112.630 302.419,111.200 301.221 C 107.940 298.489,101.798 292.335,98.403 288.400 C 96.980 286.750,95.713 285.310,95.588 285.200 C 95.464 285.090,94.929 284.370,94.400 283.600 C 93.871 282.830,93.340 282.110,93.219 282.000 C 90.634 279.642,83.149 267.455,78.847 258.600 C 77.457 255.740,76.158 253.087,75.960 252.705 C 75.762 252.323,75.600 251.738,75.600 251.405 C 75.600 251.072,75.420 250.800,75.200 250.800 C 74.980 250.800,74.800 250.438,74.800 249.995 C 74.800 249.552,74.620 248.832,74.400 248.395 C 74.180 247.958,73.820 247.242,73.600 246.805 C 73.380 246.368,73.200 245.736,73.200 245.400 C 73.200 245.064,73.029 244.477,72.819 244.095 C 72.253 243.064,71.040 239.186,69.660 234.000 C 63.718 211.663,64.015 184.227,70.429 163.000 C 71.367 159.894,73.287 154.097,73.675 153.200 C 73.913 152.650,74.263 151.795,74.454 151.300 C 74.644 150.805,74.957 149.995,75.149 149.500 C 76.943 144.878,82.750 133.486,85.414 129.363 C 86.680 127.403,88.145 125.121,88.670 124.291 C 89.194 123.461,89.877 122.471,90.186 122.091 C 90.495 121.711,91.955 119.780,93.430 117.800 C 94.905 115.820,96.222 114.110,96.358 114.000 C 96.494 113.890,97.593 112.644,98.801 111.232 C 101.745 107.789,107.136 102.386,110.805 99.200 C 112.452 97.770,113.890 96.490,114.000 96.356 C 114.110 96.221,115.820 94.905,117.800 93.430 C 119.780 91.955,121.711 90.495,122.091 90.186 C 122.471 89.877,123.461 89.194,124.291 88.669 C 125.121 88.145,127.060 86.907,128.600 85.920 C 132.846 83.198,140.683 79.052,146.600 76.396 C 148.434 75.573,149.053 75.312,151.400 74.373 C 151.840 74.197,153.370 73.669,154.800 73.200 C 156.230 72.731,157.760 72.183,158.200 71.983 C 160.821 70.787,175.501 67.407,180.784 66.783 C 182.883 66.535,185.500 66.183,186.600 66.001 C 189.421 65.534,212.671 65.801,216.986 66.350 " stroke="none" fill="#141424" fill-rule="evenodd"></path><path id="path2" d="M187.200 66.019 C 186.383 66.202,187.383 66.242,189.600 66.116 C 191.690 65.996,193.475 65.831,193.567 65.749 C 193.870 65.477,188.626 65.699,187.200 66.019 M207.233 65.752 C 207.325 65.835,209.020 66.005,211.000 66.128 C 213.560 66.288,214.138 66.250,213.000 65.999 C 211.421 65.651,206.910 65.457,207.233 65.752 M180.200 66.800 L 178.600 67.086 180.000 67.120 C 180.770 67.139,182.120 67.005,183.000 66.823 L 184.600 66.492 183.200 66.503 C 182.430 66.509,181.080 66.642,180.200 66.800 M217.400 66.800 C 218.060 66.968,219.230 67.106,220.000 67.107 L 221.400 67.108 219.800 66.777 C 217.645 66.331,215.634 66.351,217.400 66.800 M175.400 67.600 L 174.200 67.905 175.400 67.913 C 176.060 67.917,177.050 67.776,177.600 67.600 L 178.600 67.280 177.600 67.287 C 177.050 67.291,176.060 67.432,175.400 67.600 M222.800 67.600 C 223.350 67.776,224.250 67.917,224.800 67.913 C 225.698 67.906,225.678 67.874,224.600 67.600 C 222.908 67.169,221.456 67.169,222.800 67.600 M171.600 68.400 L 170.600 68.720 171.600 68.732 C 172.150 68.738,172.960 68.589,173.400 68.400 L 174.200 68.056 173.400 68.068 C 172.960 68.074,172.150 68.224,171.600 68.400 M227.000 68.400 C 227.440 68.589,228.160 68.738,228.600 68.732 C 229.243 68.723,229.204 68.657,228.400 68.400 C 227.032 67.962,225.981 67.962,227.000 68.400 M168.000 69.200 C 167.196 69.457,167.157 69.523,167.800 69.532 C 168.240 69.538,168.960 69.389,169.400 69.200 C 170.419 68.762,169.368 68.762,168.000 69.200 M230.800 69.163 C 231.350 69.357,233.600 70.007,235.800 70.608 C 240.675 71.940,243.521 72.847,246.352 73.973 C 247.536 74.444,248.596 74.737,248.709 74.624 C 248.822 74.511,248.574 74.307,248.157 74.170 C 247.741 74.034,246.683 73.654,245.806 73.326 C 241.591 71.752,233.843 69.479,231.200 69.041 C 230.075 68.855,229.996 68.879,230.800 69.163 M165.200 70.000 C 164.376 70.264,164.341 70.326,165.000 70.354 C 165.440 70.373,166.070 70.213,166.400 70.000 C 167.101 69.547,166.614 69.547,165.200 70.000 M159.933 71.342 C 157.572 72.079,157.662 72.455,160.036 71.775 C 162.936 70.943,163.133 70.861,162.200 70.874 C 161.760 70.879,160.740 71.090,159.933 71.342 M153.400 73.594 C 152.960 73.780,152.259 74.042,151.843 74.176 C 151.426 74.310,151.178 74.511,151.290 74.623 C 151.403 74.736,152.373 74.472,153.447 74.036 C 154.521 73.600,155.130 73.246,154.800 73.249 C 154.470 73.252,153.840 73.407,153.400 73.594 M146.893 76.180 C 145.300 77.060,145.348 77.306,146.979 76.629 C 147.848 76.269,148.643 75.890,148.746 75.787 C 149.126 75.408,147.771 75.694,146.893 76.180 M251.254 75.787 C 251.567 76.100,254.400 77.223,254.400 77.035 C 254.400 76.791,251.969 75.600,251.472 75.600 C 251.249 75.600,251.151 75.684,251.254 75.787 M258.565 79.720 C 258.546 80.204,258.381 80.945,258.197 81.366 C 257.976 81.875,258.006 82.044,258.288 81.869 C 258.864 81.513,259.321 79.561,258.922 79.162 C 258.745 78.985,258.584 79.236,258.565 79.720 M136.261 81.446 C 135.194 82.001,134.402 82.535,134.500 82.633 C 134.687 82.821,138.400 80.852,138.400 80.566 C 138.400 80.332,138.410 80.328,136.261 81.446 M129.314 85.485 C 127.726 86.517,126.494 87.428,126.576 87.509 C 126.729 87.662,132.400 83.993,132.400 83.741 C 132.400 83.492,132.247 83.578,129.314 85.485 M124.103 88.706 C 123.169 89.308,122.404 89.944,122.403 90.120 C 122.400 90.389,124.423 89.073,125.780 87.922 C 126.548 87.271,125.754 87.642,124.103 88.706 M119.900 91.814 C 118.855 92.580,118.000 93.307,118.000 93.429 C 118.000 93.687,121.574 91.166,121.857 90.709 C 122.174 90.195,121.881 90.360,119.900 91.814 M252.678 92.620 C 251.209 95.614,251.345 95.969,252.846 93.060 C 253.510 91.773,253.986 90.653,253.904 90.571 C 253.823 90.489,253.271 91.411,252.678 92.620 M116.776 94.113 C 114.483 95.903,113.897 96.430,114.039 96.573 C 114.128 96.662,115.011 96.034,116.000 95.179 C 117.665 93.741,118.207 92.995,116.776 94.113 M110.608 99.308 C 106.799 102.708,101.446 108.130,98.837 111.232 C 97.594 112.708,98.336 112.054,100.579 109.694 C 102.727 107.435,106.580 103.612,109.142 101.197 C 114.225 96.405,115.049 95.343,110.608 99.308 M248.952 100.300 C 248.574 101.125,248.195 101.935,248.109 102.100 C 248.023 102.265,248.045 102.400,248.158 102.400 C 248.270 102.400,248.671 101.725,249.048 100.900 C 249.426 100.075,249.805 99.265,249.891 99.100 C 249.977 98.935,249.955 98.800,249.842 98.800 C 249.730 98.800,249.329 99.475,248.952 100.300 M242.659 113.059 C 242.056 114.289,241.647 115.381,241.752 115.485 C 241.857 115.590,242.413 114.646,242.988 113.388 C 244.348 110.416,244.084 110.152,242.659 113.059 M191.400 113.167 C 190.080 113.295,194.040 113.400,200.200 113.400 C 206.360 113.400,210.140 113.287,208.600 113.150 C 205.150 112.841,194.651 112.852,191.400 113.167 M185.400 114.000 L 183.800 114.286 185.200 114.296 C 185.970 114.301,187.140 114.168,187.800 114.000 C 189.428 113.586,187.713 113.586,185.400 114.000 M213.000 114.007 C 213.880 114.206,215.950 114.631,217.600 114.951 C 220.212 115.457,223.520 116.270,226.200 117.063 C 226.640 117.193,226.878 117.170,226.728 117.011 C 226.129 116.375,217.181 114.234,213.600 113.869 C 211.655 113.671,211.586 113.687,213.000 114.007 M95.798 114.559 C 95.579 114.866,94.983 115.676,94.473 116.359 C 93.071 118.235,93.702 117.846,95.379 115.800 C 96.190 114.810,96.706 114.000,96.525 114.000 C 96.344 114.000,96.017 114.251,95.798 114.559 M176.701 115.912 C 174.776 116.475,173.278 117.011,173.371 117.105 C 173.465 117.198,175.129 116.823,177.070 116.272 C 179.012 115.722,180.960 115.186,181.400 115.082 C 182.029 114.933,181.986 114.892,181.200 114.891 C 180.650 114.891,178.625 115.350,176.701 115.912 M170.200 118.029 C 169.320 118.452,169.050 118.686,169.600 118.550 C 171.105 118.175,173.084 117.266,172.400 117.262 C 172.070 117.261,171.080 117.606,170.200 118.029 M92.729 118.700 C 91.688 119.924,90.228 122.154,90.630 121.905 C 91.077 121.629,93.732 118.000,93.487 118.000 C 93.397 118.000,93.056 118.315,92.729 118.700 M89.235 123.300 C 87.704 125.773,87.484 126.169,87.849 125.800 C 88.766 124.872,90.415 122.400,90.117 122.400 C 89.938 122.400,89.542 122.805,89.235 123.300 M151.093 127.814 C 150.272 128.372,149.600 128.915,149.600 129.020 C 149.600 129.125,150.320 128.735,151.200 128.153 C 152.597 127.228,153.070 126.800,152.693 126.800 C 152.634 126.800,151.914 127.256,151.093 127.814 M85.038 129.983 C 83.098 132.982,81.873 135.200,82.156 135.200 C 82.252 135.200,82.765 134.435,83.294 133.500 C 83.823 132.565,84.924 130.765,85.740 129.500 C 86.557 128.235,87.138 127.200,87.032 127.200 C 86.926 127.200,86.029 128.452,85.038 129.983 M146.400 131.229 C 144.970 132.324,143.170 133.880,142.400 134.687 C 141.008 136.147,141.010 136.146,142.800 134.563 C 143.790 133.687,145.635 132.207,146.900 131.273 C 148.165 130.339,149.200 129.490,149.200 129.387 C 149.200 129.091,149.140 129.130,146.400 131.229 M138.993 137.607 C 138.137 138.483,137.570 139.200,137.732 139.200 C 138.140 139.200,140.919 136.386,140.714 136.181 C 140.623 136.089,139.848 136.731,138.993 137.607 M132.433 144.891 C 131.121 146.480,130.141 147.874,130.254 147.987 C 130.367 148.101,130.638 147.876,130.855 147.487 C 131.073 147.099,132.146 145.705,133.240 144.390 C 134.334 143.076,135.137 142.000,135.024 142.000 C 134.911 142.000,133.745 143.301,132.433 144.891 M127.285 151.900 C 125.402 154.701,125.105 155.200,125.318 155.200 C 125.408 155.200,126.320 153.940,127.345 152.400 C 128.369 150.860,129.122 149.600,129.018 149.600 C 128.915 149.600,128.134 150.635,127.285 151.900 M238.984 151.700 C 238.879 151.975,238.839 163.000,238.896 176.200 L 239.000 200.200 263.262 200.400 C 276.606 200.510,287.440 200.465,287.338 200.300 C 287.236 200.135,276.363 200.000,263.176 200.000 L 239.200 200.000 239.200 175.803 L 239.200 151.606 263.300 151.500 L 287.400 151.394 263.287 151.297 C 244.294 151.221,239.134 151.306,238.984 151.700 M71.049 160.615 C 70.912 160.973,70.815 161.566,70.834 161.933 C 70.853 162.300,71.027 162.069,71.221 161.420 C 71.598 160.158,71.465 159.533,71.049 160.615 M70.264 163.500 C 69.769 165.325,69.608 166.568,69.939 166.000 C 70.334 165.325,70.868 162.800,70.617 162.800 C 70.527 162.800,70.369 163.115,70.264 163.500 M68.449 171.000 C 68.416 171.440,68.296 172.250,68.183 172.800 L 67.977 173.800 68.406 172.819 C 68.642 172.279,68.761 171.469,68.672 171.019 C 68.513 170.221,68.507 170.221,68.449 171.000 M116.488 174.686 C 115.368 178.763,114.882 180.720,114.673 182.000 C 114.346 184.002,114.990 182.333,115.598 179.600 C 115.867 178.390,116.361 176.538,116.695 175.484 C 117.029 174.431,117.213 173.479,117.103 173.370 C 116.994 173.261,116.717 173.853,116.488 174.686 M67.440 175.640 C 67.293 176.557,67.252 177.385,67.347 177.480 C 67.442 177.576,67.646 176.910,67.800 176.000 C 67.954 175.090,67.996 174.262,67.893 174.160 C 67.790 174.057,67.587 174.723,67.440 175.640 M66.646 180.646 C 66.500 181.893,66.459 182.993,66.557 183.090 C 66.654 183.188,66.861 182.254,67.015 181.015 C 67.170 179.777,67.210 178.677,67.105 178.571 C 66.999 178.466,66.793 179.399,66.646 180.646 M114.060 184.850 C 114.027 185.428,113.911 186.508,113.801 187.250 L 113.603 188.600 114.024 187.257 C 114.255 186.519,114.372 185.439,114.282 184.857 L 114.120 183.800 114.060 184.850 M65.795 187.711 C 65.643 189.127,65.592 190.626,65.680 191.042 C 65.769 191.459,65.977 190.384,66.142 188.654 C 66.307 186.924,66.358 185.425,66.256 185.323 C 66.154 185.221,65.946 186.295,65.795 187.711 M112.997 192.905 C 112.842 194.972,112.789 197.009,112.880 197.432 C 112.971 197.854,113.183 196.248,113.352 193.863 C 113.520 191.477,113.573 189.440,113.469 189.335 C 113.364 189.231,113.152 190.837,112.997 192.905 M65.350 199.800 C 65.351 202.220,65.416 203.158,65.496 201.885 C 65.576 200.612,65.575 198.632,65.494 197.485 C 65.414 196.338,65.349 197.380,65.350 199.800 M334.550 204.600 C 334.551 207.020,334.616 207.958,334.696 206.685 C 334.776 205.412,334.775 203.432,334.694 202.285 C 334.614 201.138,334.549 202.180,334.550 204.600 M286.931 203.800 C 286.933 205.340,287.005 205.921,287.092 205.091 C 287.179 204.261,287.177 203.001,287.089 202.291 C 287.000 201.581,286.929 202.260,286.931 203.800 M112.904 204.400 C 112.895 205.610,113.021 207.680,113.185 209.000 L 113.482 211.400 113.494 209.400 C 113.501 208.300,113.375 206.230,113.214 204.800 L 112.922 202.200 112.904 204.400 M286.528 209.200 C 286.528 210.630,286.601 211.215,286.689 210.500 C 286.778 209.785,286.778 208.615,286.689 207.900 C 286.601 207.185,286.528 207.770,286.528 209.200 M65.683 210.200 C 65.670 211.080,65.803 212.610,65.980 213.600 C 66.430 216.131,66.465 213.464,66.018 210.600 C 65.715 208.652,65.706 208.641,65.683 210.200 M334.101 211.000 C 334.105 211.880,334.187 212.193,334.283 211.695 C 334.379 211.198,334.375 210.478,334.275 210.095 C 334.175 209.713,334.096 210.120,334.101 211.000 M113.882 214.200 C 114.009 215.300,114.177 216.275,114.256 216.367 C 114.555 216.714,114.328 213.764,113.997 213.000 C 113.774 212.485,113.733 212.913,113.882 214.200 M333.720 214.800 C 333.720 216.010,333.795 216.505,333.887 215.900 C 333.978 215.295,333.978 214.305,333.887 213.700 C 333.795 213.095,333.720 213.590,333.720 214.800 M285.701 215.000 C 285.705 215.880,285.787 216.193,285.883 215.695 C 285.979 215.198,285.975 214.478,285.875 214.095 C 285.775 213.713,285.696 214.120,285.701 215.000 M114.673 218.400 C 114.804 219.390,114.976 220.275,115.056 220.367 C 115.357 220.714,115.128 218.164,114.790 217.400 C 114.553 216.866,114.514 217.198,114.673 218.400 M284.854 219.067 C 284.825 219.544,284.696 220.264,284.570 220.667 C 284.352 221.361,284.364 221.362,284.796 220.688 C 285.047 220.297,285.175 219.577,285.081 219.088 C 284.909 218.201,284.909 218.201,284.854 219.067 M66.901 220.600 C 66.905 221.480,66.987 221.793,67.083 221.295 C 67.179 220.798,67.175 220.078,67.075 219.695 C 66.975 219.313,66.896 219.720,66.901 220.600 M332.858 220.800 C 332.824 221.570,332.633 222.830,332.434 223.600 C 331.901 225.666,331.497 228.231,331.743 227.988 C 332.163 227.572,333.243 221.511,333.083 220.466 C 332.948 219.584,332.909 219.642,332.858 220.800 M115.444 221.800 C 115.773 223.271,116.002 223.590,115.994 222.567 C 115.991 222.145,115.805 221.530,115.582 221.200 C 115.285 220.762,115.248 220.924,115.444 221.800 M283.459 224.259 C 283.073 225.706,282.830 226.963,282.918 227.051 C 283.006 227.139,283.398 226.031,283.788 224.588 C 284.179 223.145,284.422 221.889,284.329 221.796 C 284.236 221.703,283.845 222.811,283.459 224.259 M67.473 224.400 C 67.604 225.390,67.776 226.275,67.856 226.367 C 68.157 226.714,67.928 224.164,67.590 223.400 C 67.353 222.866,67.314 223.198,67.473 224.400 M116.244 224.600 C 116.573 226.071,116.802 226.390,116.794 225.367 C 116.791 224.945,116.605 224.330,116.382 224.000 C 116.085 223.562,116.048 223.724,116.244 224.600 M117.019 227.401 C 117.175 228.060,117.457 228.768,117.645 228.973 C 117.832 229.178,117.815 228.749,117.605 228.019 C 117.118 226.318,116.644 225.819,117.019 227.401 M68.262 228.200 C 68.396 229.080,68.572 229.875,68.653 229.967 C 68.956 230.310,68.729 228.168,68.381 227.400 C 68.129 226.842,68.093 227.085,68.262 228.200 M331.260 229.267 C 331.227 229.854,331.096 230.664,330.970 231.067 C 330.752 231.760,330.765 231.761,331.195 231.090 C 331.446 230.699,331.577 229.889,331.486 229.290 L 331.320 228.200 331.260 229.267 M68.868 230.800 C 68.888 231.839,69.518 233.546,69.532 232.600 C 69.538 232.160,69.389 231.440,69.200 231.000 C 68.989 230.510,68.861 230.432,68.868 230.800 M330.454 232.667 C 330.425 233.144,330.296 233.864,330.170 234.267 C 329.952 234.961,329.964 234.962,330.396 234.288 C 330.647 233.897,330.775 233.177,330.681 232.688 C 330.509 231.801,330.509 231.801,330.454 232.667 M69.844 234.600 C 70.173 236.071,70.402 236.390,70.394 235.367 C 70.391 234.945,70.205 234.330,69.982 234.000 C 69.685 233.562,69.648 233.724,69.844 234.600 M329.646 235.667 C 329.621 236.034,329.496 236.664,329.370 237.067 C 329.152 237.762,329.163 237.763,329.597 237.087 C 329.848 236.696,329.973 236.066,329.873 235.687 C 329.711 235.068,329.688 235.066,329.646 235.667 M70.806 238.233 C 70.809 238.655,70.995 239.270,71.218 239.600 C 71.515 240.038,71.552 239.876,71.356 239.000 C 71.027 237.529,70.798 237.210,70.806 238.233 M71.631 240.600 C 71.606 241.135,72.583 243.917,72.914 244.247 C 73.058 244.391,73.019 243.989,72.828 243.354 C 72.325 241.681,71.654 240.135,71.631 240.600 M125.845 246.212 C 126.210 246.769,126.586 247.147,126.682 247.051 C 126.919 246.814,125.884 245.200,125.495 245.200 C 125.322 245.200,125.480 245.656,125.845 246.212 M129.191 251.188 C 130.428 252.924,131.025 253.134,129.932 251.448 C 129.419 250.657,128.853 250.008,128.673 250.005 C 128.493 250.002,128.726 250.535,129.191 251.188 M270.686 250.519 C 270.577 250.805,269.556 252.290,268.418 253.819 C 267.239 255.403,266.960 255.911,267.769 255.000 C 269.847 252.659,271.708 250.000,271.268 250.000 C 271.058 250.000,270.796 250.234,270.686 250.519 M131.951 254.738 C 132.621 255.585,133.487 256.530,133.874 256.838 C 134.261 257.147,133.790 256.455,132.826 255.300 C 130.806 252.878,130.138 252.449,131.951 254.738 M138.200 261.600 C 140.392 263.800,142.268 265.600,142.370 265.600 C 142.714 265.600,135.004 257.708,134.608 257.654 C 134.392 257.624,136.008 259.400,138.200 261.600 M264.039 258.724 C 263.510 259.316,261.801 261.150,260.240 262.800 C 258.219 264.936,258.582 264.650,261.501 261.808 C 263.755 259.612,265.600 257.767,265.600 257.708 C 265.600 257.325,264.858 257.808,264.039 258.724 M316.250 267.700 C 314.559 270.615,311.644 275.160,309.771 277.800 C 306.791 282.001,306.517 282.574,308.873 279.681 C 311.394 276.584,320.097 262.400,319.476 262.400 C 319.392 262.400,317.940 264.785,316.250 267.700 M83.210 267.100 C 85.092 270.465,90.755 279.065,91.491 279.675 C 91.839 279.964,90.769 278.220,89.114 275.800 C 87.459 273.380,85.247 269.915,84.198 268.100 C 83.150 266.285,82.209 264.800,82.108 264.800 C 82.007 264.800,82.503 265.835,83.210 267.100 M143.400 266.359 C 144.394 267.510,149.259 271.191,149.793 271.196 C 150.009 271.198,149.469 270.722,148.593 270.138 C 147.717 269.555,146.010 268.257,144.800 267.255 C 143.590 266.252,142.960 265.849,143.400 266.359 M251.930 269.733 C 249.582 271.530,247.332 273.229,246.930 273.508 C 246.293 273.952,246.315 273.962,247.105 273.591 C 248.780 272.805,257.330 266.165,256.324 266.433 C 256.256 266.451,254.279 267.936,251.930 269.733 M243.200 275.636 C 242.536 276.179,242.469 276.315,243.000 276.040 C 244.305 275.366,245.028 274.812,244.600 274.815 C 244.380 274.817,243.750 275.186,243.200 275.636 M225.600 283.200 C 224.776 283.464,224.741 283.526,225.400 283.554 C 225.840 283.573,226.470 283.413,226.800 283.200 C 227.501 282.747,227.014 282.747,225.600 283.200 M303.408 286.100 C 299.900 290.360,289.360 300.767,285.685 303.600 C 284.116 304.810,282.824 305.947,282.816 306.128 C 282.748 307.547,298.093 293.028,303.247 286.796 C 306.200 283.225,306.526 282.800,306.311 282.800 C 306.209 282.800,304.902 284.285,303.408 286.100 M175.600 284.000 C 175.930 284.213,176.560 284.378,177.000 284.366 L 177.800 284.344 177.000 284.000 C 175.804 283.486,174.805 283.486,175.600 284.000 M178.600 284.800 C 179.040 284.989,179.760 285.138,180.200 285.132 C 180.843 285.123,180.804 285.057,180.000 284.800 C 178.632 284.362,177.581 284.362,178.600 284.800 M219.800 284.800 C 218.711 285.077,218.693 285.107,219.600 285.125 C 220.150 285.135,220.960 284.989,221.400 284.800 C 222.386 284.376,221.466 284.376,219.800 284.800 M182.200 285.567 C 184.672 286.256,189.042 286.875,190.200 286.701 C 191.126 286.561,190.988 286.506,189.600 286.458 C 188.610 286.424,187.170 286.232,186.400 286.033 C 184.515 285.545,180.537 285.104,182.200 285.567 M215.226 285.654 C 214.030 285.852,212.954 286.113,212.833 286.233 C 212.533 286.534,216.808 285.960,217.800 285.568 C 218.815 285.166,218.008 285.193,215.226 285.654 M97.441 287.211 C 98.298 288.206,99.967 290.141,101.148 291.511 C 102.329 292.880,103.425 294.000,103.583 294.000 C 103.881 294.000,100.719 290.389,97.641 287.215 L 95.882 285.400 97.441 287.211 M209.705 286.687 C 210.314 286.779,211.214 286.777,211.705 286.682 C 212.197 286.587,211.700 286.511,210.600 286.514 C 209.500 286.517,209.097 286.595,209.705 286.687 M193.400 287.236 C 195.439 287.536,205.070 287.720,204.767 287.453 C 204.675 287.373,201.630 287.224,198.000 287.124 C 194.370 287.023,192.300 287.074,193.400 287.236 M205.900 287.082 C 206.395 287.178,207.205 287.178,207.700 287.082 C 208.195 286.987,207.790 286.909,206.800 286.909 C 205.810 286.909,205.405 286.987,205.900 287.082 M106.200 296.714 C 107.520 297.982,109.770 299.982,111.200 301.159 C 112.630 302.336,113.080 302.621,112.200 301.792 C 111.320 300.964,109.196 298.961,107.481 297.343 C 105.766 295.724,104.236 294.402,104.081 294.405 C 103.926 294.408,104.880 295.447,106.200 296.714 M114.000 303.429 C 114.000 303.711,114.417 304.079,116.500 305.633 C 118.263 306.949,117.768 306.234,115.800 304.621 C 114.810 303.810,114.000 303.274,114.000 303.429 M118.007 306.675 C 118.011 306.854,118.931 307.599,120.050 308.332 C 121.170 309.064,121.992 309.510,121.876 309.323 C 121.515 308.739,118.000 306.333,118.007 306.675 M279.397 308.451 C 276.977 310.255,276.746 310.686,279.000 309.194 C 281.449 307.573,281.371 307.637,281.164 307.431 C 281.071 307.337,280.276 307.797,279.397 308.451 M122.407 309.917 C 122.415 310.240,126.414 312.925,126.594 312.728 C 126.658 312.658,125.741 311.933,124.555 311.117 C 123.370 310.302,122.403 309.762,122.407 309.917 M275.600 311.200 C 275.050 311.630,274.797 311.986,275.038 311.991 C 275.279 311.996,275.802 311.640,276.200 311.200 C 277.112 310.192,276.888 310.192,275.600 311.200 M271.490 313.817 C 270.000 314.798,268.650 315.604,268.490 315.609 C 268.331 315.614,267.750 315.985,267.200 316.433 L 266.200 317.248 267.517 316.605 C 269.951 315.416,275.209 311.860,274.300 312.017 C 274.245 312.027,272.981 312.837,271.490 313.817 M127.215 313.088 C 127.235 313.497,135.200 318.266,135.200 317.868 C 135.200 317.758,134.435 317.235,133.500 316.706 C 132.565 316.177,130.765 315.076,129.500 314.260 C 128.235 313.443,127.207 312.916,127.215 313.088 M264.400 318.033 L 263.400 318.848 264.700 318.214 C 265.415 317.865,266.000 317.494,266.000 317.390 C 266.000 316.992,265.363 317.248,264.400 318.033 M137.200 318.998 C 137.200 319.267,141.249 321.284,141.429 321.105 C 141.511 321.023,140.593 320.473,139.389 319.882 C 138.185 319.292,137.200 318.894,137.200 318.998 M258.000 321.200 C 257.230 321.622,256.780 321.966,257.000 321.966 C 257.220 321.966,258.030 321.622,258.800 321.200 C 259.570 320.778,260.020 320.434,259.800 320.434 C 259.580 320.434,258.770 320.778,258.000 321.200 M247.800 325.600 C 246.260 326.237,245.281 326.768,245.625 326.779 C 245.969 326.791,246.959 326.473,247.825 326.073 C 248.691 325.673,249.850 325.145,250.400 324.900 C 252.558 323.938,250.438 324.509,247.800 325.600 M155.205 326.938 C 155.521 327.255,161.477 329.202,162.071 329.183 C 162.362 329.174,161.340 328.733,159.800 328.203 C 156.635 327.115,154.905 326.638,155.205 326.938 M243.400 327.200 C 242.629 327.531,242.631 327.545,243.476 327.572 C 243.958 327.587,244.464 327.420,244.600 327.200 C 244.892 326.727,244.501 326.727,243.400 327.200 M238.600 328.800 C 237.829 329.131,237.831 329.145,238.676 329.172 C 239.158 329.187,239.664 329.020,239.800 328.800 C 240.092 328.327,239.701 328.327,238.600 328.800 M162.842 329.359 C 163.139 329.676,170.006 331.413,172.200 331.726 C 174.297 332.025,172.844 331.582,167.800 330.383 C 165.820 329.912,163.840 329.431,163.400 329.314 C 162.960 329.197,162.709 329.217,162.842 329.359 M235.200 329.661 C 234.430 329.870,233.260 330.207,232.600 330.409 L 231.400 330.778 232.600 330.614 C 234.602 330.339,237.217 329.717,237.483 329.451 C 237.819 329.115,236.907 329.199,235.200 329.661 M227.955 331.378 C 227.857 331.476,226.522 331.771,224.988 332.034 C 216.300 333.523,215.996 333.587,218.600 333.375 C 222.369 333.068,231.111 331.296,229.167 331.233 C 228.598 331.215,228.053 331.280,227.955 331.378 M174.033 332.149 C 174.125 332.231,175.100 332.401,176.200 332.528 C 177.549 332.684,177.874 332.649,177.200 332.420 C 176.201 332.080,173.718 331.868,174.033 332.149 M180.000 333.220 C 182.414 333.650,184.306 333.613,182.200 333.177 C 181.320 332.995,180.060 332.858,179.400 332.873 C 178.500 332.893,178.650 332.980,180.000 333.220 M186.400 334.017 C 187.610 334.184,189.410 334.315,190.400 334.307 L 192.200 334.293 190.200 333.982 C 189.100 333.810,187.300 333.680,186.200 333.691 L 184.200 333.713 186.400 334.017 M209.200 334.000 L 207.000 334.270 209.200 334.300 C 210.410 334.316,212.300 334.190,213.400 334.018 L 215.400 333.707 213.400 333.719 C 212.300 333.725,210.410 333.852,209.200 334.000 M197.300 334.696 C 198.565 334.775,200.635 334.775,201.900 334.696 C 203.165 334.616,202.130 334.551,199.600 334.551 C 197.070 334.551,196.035 334.616,197.300 334.696 " stroke="none" fill="#6a5b46" fill-rule="evenodd"></path><path id="path3" d="M190.400 66.029 C 185.384 66.504,179.647 67.203,177.600 67.589 C 173.650 68.333,170.897 68.903,168.800 69.409 C 165.077 70.309,160.213 71.653,160.036 71.831 C 159.659 72.208,161.187 71.924,164.600 70.985 C 170.288 69.419,174.787 68.530,183.698 67.212 C 197.755 65.133,218.262 66.387,232.736 70.213 C 236.335 71.164,237.520 71.384,237.167 71.036 C 236.949 70.821,230.070 69.052,227.000 68.421 C 214.887 65.932,200.998 65.024,190.400 66.029 M238.000 71.600 C 238.330 71.813,238.960 71.978,239.400 71.966 L 240.200 71.944 239.400 71.600 C 238.204 71.086,237.205 71.086,238.000 71.600 M158.000 72.400 C 157.512 72.715,157.564 72.789,158.276 72.794 C 158.758 72.797,159.264 72.620,159.400 72.400 C 159.715 71.891,158.788 71.891,158.000 72.400 M240.600 72.400 C 240.736 72.620,241.242 72.797,241.724 72.794 C 242.436 72.789,242.488 72.715,242.000 72.400 C 241.212 71.891,240.285 71.891,240.600 72.400 M154.800 73.513 C 153.571 73.956,153.236 74.212,153.742 74.319 C 154.151 74.405,154.682 74.278,154.922 74.038 C 155.163 73.797,155.673 73.600,156.056 73.600 C 156.439 73.600,156.864 73.420,157.000 73.200 C 157.322 72.679,156.973 72.728,154.800 73.513 M243.000 73.200 C 243.136 73.420,243.642 73.597,244.124 73.594 C 244.836 73.589,244.888 73.515,244.400 73.200 C 243.612 72.691,242.685 72.691,243.000 73.200 M151.400 74.800 C 150.629 75.131,150.631 75.145,151.476 75.172 C 151.958 75.187,152.464 75.020,152.600 74.800 C 152.892 74.327,152.501 74.327,151.400 74.800 M247.400 74.800 C 247.536 75.020,248.042 75.187,248.524 75.172 C 249.369 75.145,249.371 75.131,248.600 74.800 C 247.499 74.327,247.108 74.327,247.400 74.800 M148.400 76.000 C 147.630 76.422,147.197 76.774,147.439 76.783 C 147.940 76.802,150.400 75.629,150.400 75.371 C 150.400 75.046,149.794 75.237,148.400 76.000 M249.600 75.365 C 249.600 75.609,252.031 76.800,252.528 76.800 C 252.751 76.800,252.849 76.716,252.746 76.613 C 252.433 76.300,249.600 75.177,249.600 75.365 M140.308 79.752 C 133.039 83.559,131.841 84.228,129.500 85.784 C 125.658 88.339,126.780 87.992,131.200 85.260 C 135.318 82.714,143.514 78.400,144.233 78.400 C 144.545 78.400,144.800 78.220,144.800 78.000 C 144.800 77.405,144.748 77.425,140.308 79.752 M255.200 77.976 C 255.200 78.209,255.434 78.400,255.720 78.400 C 256.641 78.400,258.372 79.382,258.542 80.000 C 258.670 80.466,258.718 80.448,258.754 79.919 C 258.782 79.497,258.229 78.976,257.300 78.552 C 256.475 78.174,255.665 77.795,255.500 77.709 C 255.335 77.623,255.200 77.743,255.200 77.976 M254.013 89.051 C 251.789 93.590,250.039 97.373,250.125 97.458 C 250.210 97.544,251.859 94.416,253.788 90.507 C 257.588 82.808,258.507 80.800,258.234 80.800 C 258.137 80.800,256.238 84.513,254.013 89.051 M121.806 90.839 C 119.389 92.612,116.149 95.082,114.606 96.328 C 111.714 98.664,99.888 110.022,100.114 110.247 C 100.183 110.317,102.481 108.169,105.220 105.475 C 107.959 102.780,111.262 99.681,112.561 98.588 C 113.859 97.495,115.119 96.417,115.361 96.193 C 115.602 95.968,116.970 94.923,118.400 93.870 C 119.830 92.817,121.315 91.698,121.699 91.382 C 122.084 91.067,123.389 90.152,124.599 89.348 C 125.810 88.544,126.800 87.822,126.800 87.743 C 126.800 87.294,125.759 87.939,121.806 90.839 M247.046 103.258 C 246.471 104.412,246.009 105.547,246.019 105.779 C 246.030 106.010,246.582 105.147,247.246 103.860 C 247.910 102.573,248.372 101.439,248.273 101.339 C 248.173 101.240,247.621 102.103,247.046 103.258 M244.580 108.440 C 244.011 109.562,243.613 110.547,243.695 110.629 C 243.777 110.711,244.327 109.793,244.918 108.589 C 245.508 107.385,245.906 106.400,245.802 106.400 C 245.698 106.400,245.148 107.318,244.580 108.440 M96.726 114.115 C 93.276 118.353,91.514 120.800,91.911 120.800 C 92.085 120.800,92.566 120.226,92.980 119.525 C 93.395 118.824,95.151 116.574,96.884 114.525 C 98.616 112.476,99.891 110.807,99.717 110.815 C 99.543 110.823,98.197 112.308,96.726 114.115 M191.679 112.740 C 191.172 112.883,195.114 113.000,200.439 113.000 C 205.764 113.000,209.418 112.875,208.560 112.723 C 206.602 112.375,192.921 112.389,191.679 112.740 M185.600 113.623 C 185.174 113.914,185.580 113.955,187.000 113.765 C 188.100 113.618,189.075 113.431,189.167 113.349 C 189.568 112.990,186.139 113.254,185.600 113.623 M211.233 113.349 C 211.325 113.431,212.300 113.607,213.400 113.741 C 214.746 113.905,215.139 113.865,214.600 113.620 C 213.839 113.274,210.883 113.036,211.233 113.349 M181.400 114.400 L 180.600 114.744 181.400 114.732 C 181.840 114.726,182.650 114.576,183.200 114.400 L 184.200 114.080 183.200 114.068 C 182.650 114.062,181.840 114.211,181.400 114.400 M217.200 114.400 C 217.750 114.576,218.560 114.726,219.000 114.732 L 219.800 114.744 219.000 114.400 C 218.560 114.211,217.750 114.062,217.200 114.068 L 216.200 114.080 217.200 114.400 M240.123 117.580 C 239.097 119.724,238.339 120.814,237.800 120.926 C 237.079 121.075,237.088 121.096,237.889 121.146 C 238.736 121.197,240.254 118.824,241.629 115.300 C 242.411 113.296,241.553 114.594,240.123 117.580 M178.000 115.200 C 177.205 115.714,178.204 115.714,179.400 115.200 L 180.200 114.856 179.400 114.834 C 178.960 114.822,178.330 114.987,178.000 115.200 M220.800 115.200 C 221.130 115.413,221.760 115.578,222.200 115.566 L 223.000 115.544 222.200 115.200 C 221.004 114.686,220.005 114.686,220.800 115.200 M175.200 116.000 C 174.405 116.514,175.404 116.514,176.600 116.000 L 177.400 115.656 176.600 115.634 C 176.160 115.622,175.530 115.787,175.200 116.000 M223.800 116.000 C 224.901 116.473,225.292 116.473,225.000 116.000 C 224.864 115.780,224.358 115.613,223.876 115.628 C 223.031 115.655,223.029 115.669,223.800 116.000 M172.600 116.800 C 172.096 117.017,172.022 117.144,172.400 117.144 C 172.730 117.144,173.360 116.989,173.800 116.800 C 174.304 116.583,174.378 116.456,174.000 116.456 C 173.670 116.456,173.040 116.611,172.600 116.800 M226.600 116.791 C 229.423 117.980,232.058 118.875,232.229 118.704 C 232.459 118.474,227.000 116.386,226.277 116.427 C 226.015 116.442,226.160 116.606,226.600 116.791 M166.616 119.023 C 161.589 121.110,152.000 126.390,152.000 127.071 C 152.000 127.288,152.523 126.987,154.656 125.543 C 156.643 124.198,165.038 119.985,167.700 118.997 C 168.745 118.609,169.600 118.226,169.600 118.146 C 169.600 117.861,168.970 118.046,166.616 119.023 M233.020 119.140 C 233.498 119.567,236.800 120.856,236.800 120.615 C 236.800 120.430,233.271 118.800,232.869 118.800 C 232.743 118.800,232.811 118.953,233.020 119.140 M90.915 121.700 C 89.021 124.176,88.358 125.199,88.653 125.193 C 88.982 125.186,91.777 121.200,91.452 121.200 C 91.367 121.200,91.126 121.425,90.915 121.700 M87.570 126.466 C 87.298 126.980,86.813 127.805,86.492 128.300 C 86.171 128.795,85.995 129.200,86.101 129.200 C 86.436 129.200,88.469 125.936,88.262 125.729 C 88.154 125.620,87.842 125.952,87.570 126.466 M149.103 128.749 C 146.497 130.789,145.807 131.605,148.000 130.054 C 150.789 128.082,151.836 127.216,151.400 127.241 C 151.180 127.254,150.146 127.933,149.103 128.749 M84.480 131.500 C 82.693 134.319,79.565 140.099,79.734 140.267 C 79.815 140.348,80.480 139.286,81.212 137.907 C 81.944 136.528,83.252 134.230,84.119 132.800 C 84.986 131.370,85.774 130.065,85.871 129.900 C 85.968 129.735,85.965 129.600,85.865 129.600 C 85.765 129.600,85.142 130.455,84.480 131.500 M140.400 135.967 C 138.530 137.699,137.090 139.180,137.200 139.258 C 137.310 139.336,138.930 137.918,140.800 136.107 C 145.122 131.922,144.865 131.832,140.400 135.967 M134.575 142.100 L 133.400 143.400 134.700 142.225 C 135.912 141.130,136.184 140.800,135.875 140.800 C 135.806 140.800,135.221 141.385,134.575 142.100 M137.200 261.000 C 137.946 261.770,138.647 262.400,138.757 262.400 C 138.867 262.400,138.346 261.770,137.600 261.000 C 136.854 260.230,136.153 259.600,136.043 259.600 C 135.933 259.600,136.454 260.230,137.200 261.000 M260.400 263.000 C 259.428 263.990,258.723 264.800,258.833 264.800 C 258.943 264.800,259.828 263.990,260.800 263.000 C 261.772 262.010,262.477 261.200,262.367 261.200 C 262.257 261.200,261.372 262.010,260.400 263.000 M309.944 277.100 C 308.793 278.489,308.306 279.200,308.504 279.200 C 308.614 279.200,309.186 278.570,309.773 277.800 C 310.863 276.371,310.995 275.832,309.944 277.100 M234.500 280.234 C 233.785 280.546,233.200 280.894,233.200 281.007 C 233.200 281.215,236.006 280.127,236.346 279.787 C 236.686 279.447,235.820 279.657,234.500 280.234 M306.928 281.100 C 302.302 287.338,292.204 297.922,286.800 302.197 C 285.150 303.503,283.562 304.803,283.271 305.086 C 282.980 305.369,281.540 306.450,280.071 307.487 C 278.602 308.524,277.310 309.471,277.200 309.592 C 277.090 309.712,275.965 310.513,274.700 311.372 C 272.390 312.940,271.443 313.902,273.500 312.591 C 274.977 311.650,282.548 306.282,282.800 305.997 C 282.910 305.873,284.440 304.609,286.200 303.189 C 290.374 299.820,299.921 290.316,303.467 286.000 C 306.909 281.810,308.566 279.600,308.268 279.600 C 308.143 279.600,307.540 280.275,306.928 281.100 M230.200 282.029 C 229.320 282.452,229.050 282.686,229.600 282.549 C 230.733 282.267,232.812 281.225,232.200 281.246 C 231.980 281.253,231.080 281.606,230.200 282.029 M224.000 284.000 C 223.467 284.345,223.467 284.388,224.000 284.388 C 224.330 284.388,224.870 284.213,225.200 284.000 C 225.733 283.655,225.733 283.612,225.200 283.612 C 224.870 283.612,224.330 283.787,224.000 284.000 M177.400 284.800 C 177.840 284.989,178.470 285.144,178.800 285.144 C 179.178 285.144,179.104 285.017,178.600 284.800 C 178.160 284.611,177.530 284.456,177.200 284.456 C 176.822 284.456,176.896 284.583,177.400 284.800 M221.400 284.800 C 220.896 285.017,220.822 285.144,221.200 285.144 C 221.530 285.144,222.160 284.989,222.600 284.800 C 223.104 284.583,223.178 284.456,222.800 284.456 C 222.470 284.456,221.840 284.611,221.400 284.800 M97.400 286.800 C 98.259 287.680,99.052 288.400,99.162 288.400 C 99.272 288.400,98.659 287.680,97.800 286.800 C 96.941 285.920,96.148 285.200,96.038 285.200 C 95.928 285.200,96.541 285.920,97.400 286.800 M180.600 285.600 C 181.040 285.789,181.760 285.938,182.200 285.932 C 182.843 285.923,182.804 285.857,182.000 285.600 C 180.632 285.162,179.581 285.162,180.600 285.600 M217.800 285.600 L 217.000 285.944 217.800 285.944 C 218.240 285.944,218.960 285.789,219.400 285.600 L 220.200 285.256 219.400 285.256 C 218.960 285.256,218.240 285.411,217.800 285.600 M184.600 286.400 C 185.040 286.589,185.850 286.738,186.400 286.732 L 187.400 286.720 186.400 286.400 C 185.850 286.224,185.040 286.074,184.600 286.068 L 183.800 286.056 184.600 286.400 M213.400 286.400 L 212.200 286.705 213.400 286.725 C 214.060 286.735,214.960 286.589,215.400 286.400 L 216.200 286.056 215.400 286.075 C 214.960 286.086,214.060 286.232,213.400 286.400 M190.000 287.179 C 190.979 287.513,195.096 287.747,194.767 287.449 C 194.675 287.366,193.340 287.195,191.800 287.068 C 190.032 286.922,189.369 286.963,190.000 287.179 M206.600 287.200 L 204.600 287.474 206.800 287.497 C 208.010 287.510,209.450 287.376,210.000 287.200 C 211.308 286.781,209.654 286.781,206.600 287.200 M100.785 290.600 C 105.347 295.767,112.697 302.375,119.509 307.433 C 122.089 309.349,124.425 311.093,124.700 311.307 C 124.979 311.525,125.200 311.537,125.200 311.335 C 125.200 311.136,124.667 310.657,124.015 310.272 C 123.363 309.887,122.598 309.345,122.315 309.067 C 122.032 308.789,120.900 307.957,119.800 307.217 C 116.451 304.966,110.888 300.133,105.075 294.425 C 98.698 288.164,98.399 287.897,100.785 290.600 M125.820 311.936 C 126.448 312.492,129.200 314.079,129.200 313.886 C 129.200 313.645,126.094 311.600,125.729 311.600 C 125.570 311.600,125.611 311.751,125.820 311.936 M268.200 315.273 C 264.500 317.570,252.948 323.295,250.243 324.173 C 249.826 324.308,249.578 324.511,249.691 324.624 C 250.112 325.045,261.147 319.955,265.800 317.195 C 266.900 316.542,268.340 315.732,269.000 315.395 C 270.467 314.646,272.350 313.205,271.800 313.252 C 271.580 313.271,269.960 314.180,268.200 315.273 M130.200 314.592 C 132.131 316.203,142.216 321.536,146.700 323.318 C 148.799 324.152,148.955 323.883,146.900 322.973 C 143.332 321.393,137.602 318.567,135.200 317.201 C 129.965 314.225,129.415 313.938,130.200 314.592 M154.553 326.436 C 155.627 326.872,156.597 327.136,156.710 327.023 C 156.822 326.911,156.574 326.711,156.157 326.580 C 155.741 326.449,155.087 326.175,154.705 325.971 C 154.323 325.767,153.693 325.610,153.305 325.622 C 152.917 325.634,153.479 326.000,154.553 326.436 M243.400 326.800 C 243.108 327.273,243.499 327.273,244.600 326.800 C 245.371 326.469,245.369 326.455,244.524 326.428 C 244.042 326.413,243.536 326.580,243.400 326.800 M158.000 327.600 C 158.330 327.813,158.870 327.988,159.200 327.988 C 159.733 327.988,159.733 327.945,159.200 327.600 C 158.870 327.387,158.330 327.212,158.000 327.212 C 157.467 327.212,157.467 327.255,158.000 327.600 M239.400 327.990 C 238.300 328.381,236.770 328.885,236.000 329.110 C 235.204 329.342,234.945 329.529,235.400 329.542 C 235.840 329.555,237.730 329.051,239.600 328.422 C 241.470 327.793,242.640 327.278,242.200 327.279 C 241.760 327.279,240.500 327.600,239.400 327.990 M160.400 328.400 C 161.188 328.909,162.115 328.909,161.800 328.400 C 161.664 328.180,161.158 328.003,160.676 328.006 C 159.964 328.011,159.912 328.085,160.400 328.400 M163.000 329.200 C 164.184 329.709,165.587 329.709,164.800 329.200 C 164.470 328.987,163.750 328.822,163.200 328.834 C 162.284 328.854,162.267 328.885,163.000 329.200 M166.200 330.000 C 166.640 330.189,167.360 330.344,167.800 330.344 L 168.600 330.344 167.800 330.000 C 167.360 329.811,166.640 329.656,166.200 329.656 L 165.400 329.656 166.200 330.000 M232.000 329.997 C 231.450 330.180,230.460 330.458,229.800 330.614 C 229.140 330.771,228.796 330.972,229.035 331.061 C 229.488 331.230,233.965 330.168,234.327 329.806 C 234.638 329.495,233.135 329.618,232.000 329.997 M169.400 330.800 C 169.840 330.989,170.560 331.144,171.000 331.144 L 171.800 331.144 171.000 330.800 C 170.560 330.611,169.840 330.456,169.400 330.456 L 168.600 330.456 169.400 330.800 M172.483 331.416 C 172.885 331.818,182.243 333.216,189.600 333.973 C 194.888 334.516,204.070 334.526,209.800 333.993 C 216.167 333.401,221.194 332.788,222.800 332.406 C 223.570 332.223,225.100 331.943,226.200 331.784 C 227.300 331.625,227.974 331.413,227.699 331.314 C 227.423 331.214,225.083 331.500,222.499 331.950 C 208.595 334.370,191.484 334.396,178.000 332.019 C 173.198 331.173,172.122 331.055,172.483 331.416 " stroke="none" fill="#8c7454" fill-rule="evenodd"></path><path id="path4" d="M287.297 176.094 L 287.200 200.387 310.800 200.494 C 323.780 200.552,334.400 200.465,334.400 200.300 C 334.400 200.135,323.871 200.000,311.003 200.000 L 287.606 200.000 287.500 175.900 L 287.394 151.800 287.297 176.094 M69.029 169.829 C 68.881 170.415,68.838 170.972,68.932 171.066 C 69.027 171.160,69.224 170.758,69.371 170.171 C 69.519 169.585,69.562 169.028,69.468 168.934 C 69.373 168.840,69.176 169.242,69.029 169.829 M68.229 173.829 C 68.081 174.415,68.038 174.972,68.132 175.066 C 68.227 175.160,68.424 174.758,68.571 174.171 C 68.719 173.585,68.762 173.028,68.668 172.934 C 68.573 172.840,68.376 173.242,68.229 173.829 M67.456 177.684 C 67.321 178.188,67.227 178.960,67.246 179.400 C 67.265 179.840,67.445 179.498,67.646 178.640 C 68.036 176.978,67.870 176.140,67.456 177.684 M114.200 182.000 C 114.048 182.691,114.007 183.341,114.109 183.442 C 114.211 183.544,114.409 183.053,114.550 182.350 C 114.883 180.683,114.560 180.360,114.200 182.000 M66.509 185.200 C 66.509 186.190,66.587 186.595,66.682 186.100 C 66.778 185.605,66.778 184.795,66.682 184.300 C 66.587 183.805,66.509 184.210,66.509 185.200 M113.476 185.610 C 113.330 186.155,113.228 187.140,113.249 187.800 C 113.280 188.757,113.359 188.636,113.642 187.200 C 114.029 185.233,113.902 184.017,113.476 185.610 M65.861 191.100 C 65.536 194.539,65.587 207.570,65.935 210.200 C 66.081 211.300,66.200 206.845,66.200 200.300 C 66.200 193.755,66.181 188.400,66.158 188.400 C 66.135 188.400,66.001 189.615,65.861 191.100 M112.657 191.900 C 112.341 193.812,112.412 207.016,112.747 208.580 C 112.886 209.229,113.000 205.404,113.000 200.080 C 113.000 194.756,112.979 190.400,112.952 190.400 C 112.926 190.400,112.793 191.075,112.657 191.900 M287.277 202.641 C 287.235 203.764,287.116 205.834,287.013 207.241 L 286.826 209.800 287.227 207.600 C 287.447 206.390,287.566 204.320,287.491 203.000 L 287.354 200.600 287.277 202.641 M334.078 204.800 C 334.032 206.230,333.912 208.660,333.812 210.200 L 333.631 213.000 334.022 210.600 C 334.237 209.280,334.357 206.850,334.287 205.200 L 334.161 202.200 334.078 204.800 M113.228 212.433 C 113.244 213.185,113.420 214.160,113.620 214.600 C 113.865 215.139,113.905 214.746,113.741 213.400 C 113.451 211.019,113.189 210.524,113.228 212.433 M286.200 213.200 C 286.046 214.110,286.011 214.944,286.121 215.054 C 286.231 215.164,286.446 214.510,286.600 213.600 C 286.754 212.690,286.789 211.856,286.679 211.746 C 286.569 211.636,286.354 212.290,286.200 213.200 M66.473 215.000 C 66.458 215.660,66.595 216.920,66.777 217.800 C 67.213 219.906,67.250 218.014,66.820 215.600 C 66.580 214.250,66.493 214.100,66.473 215.000 M333.000 217.200 C 332.845 218.328,332.808 219.341,332.918 219.451 C 333.028 219.561,333.245 218.728,333.400 217.600 C 333.555 216.472,333.592 215.459,333.482 215.349 C 333.372 215.239,333.155 216.072,333.000 217.200 M114.080 217.000 C 114.080 217.440,114.224 218.250,114.400 218.800 C 114.654 219.592,114.720 219.633,114.720 219.000 C 114.720 218.560,114.576 217.750,114.400 217.200 C 114.146 216.408,114.080 216.367,114.080 217.000 M285.450 217.650 C 285.309 218.353,285.269 219.002,285.359 219.092 C 285.450 219.183,285.648 218.691,285.800 218.000 C 285.952 217.309,285.993 216.659,285.891 216.558 C 285.789 216.456,285.591 216.947,285.450 217.650 M114.856 220.800 C 114.856 221.130,115.011 221.760,115.200 222.200 C 115.417 222.704,115.544 222.778,115.544 222.400 C 115.544 222.070,115.389 221.440,115.200 221.000 C 114.983 220.496,114.856 220.422,114.856 220.800 M284.673 220.953 C 284.523 221.345,284.411 221.966,284.425 222.333 C 284.442 222.775,284.581 222.674,284.837 222.034 C 285.049 221.503,285.161 220.882,285.085 220.654 C 285.009 220.427,284.824 220.561,284.673 220.953 M67.268 221.600 C 67.262 222.150,67.411 222.960,67.600 223.400 L 67.944 224.200 67.932 223.400 C 67.926 222.960,67.776 222.150,67.600 221.600 L 67.280 220.600 67.268 221.600 M332.222 222.622 C 332.072 223.425,332.028 224.162,332.126 224.260 C 332.224 224.357,332.427 223.781,332.578 222.978 C 332.728 222.175,332.772 221.438,332.674 221.340 C 332.576 221.243,332.373 221.819,332.222 222.622 M115.628 223.876 C 115.613 224.358,115.780 224.864,116.000 225.000 C 116.473 225.292,116.473 224.901,116.000 223.800 C 115.669 223.029,115.655 223.031,115.628 223.876 M68.056 225.800 C 68.056 226.240,68.211 226.960,68.400 227.400 L 68.744 228.200 68.744 227.400 C 68.744 226.960,68.589 226.240,68.400 225.800 L 68.056 225.000 68.056 225.800 M331.400 226.800 C 331.248 227.491,331.207 228.141,331.309 228.242 C 331.411 228.344,331.609 227.853,331.750 227.150 C 331.891 226.447,331.931 225.798,331.841 225.708 C 331.750 225.617,331.552 226.109,331.400 226.800 M68.856 229.600 C 68.856 229.930,69.011 230.560,69.200 231.000 C 69.417 231.504,69.544 231.578,69.544 231.200 C 69.544 230.870,69.389 230.240,69.200 229.800 C 68.983 229.296,68.856 229.222,68.856 229.600 M330.673 230.153 C 330.523 230.545,330.411 231.166,330.425 231.533 C 330.442 231.975,330.581 231.874,330.837 231.234 C 331.049 230.703,331.161 230.082,331.085 229.854 C 331.009 229.627,330.824 229.761,330.673 230.153 M69.612 232.800 C 69.612 233.130,69.787 233.670,70.000 234.000 C 70.345 234.533,70.388 234.533,70.388 234.000 C 70.388 233.670,70.213 233.130,70.000 232.800 C 69.655 232.267,69.612 232.267,69.612 232.800 M119.617 235.100 C 119.639 235.501,121.162 238.270,121.183 237.949 C 121.211 237.535,120.005 234.800,119.795 234.800 C 119.688 234.800,119.608 234.935,119.617 235.100 M279.605 235.786 C 279.399 236.329,278.860 237.499,278.407 238.386 C 277.954 239.274,277.674 240.000,277.784 240.000 C 278.007 240.000,279.427 237.307,280.005 235.786 C 280.211 235.244,280.290 234.800,280.180 234.800 C 280.070 234.800,279.811 235.244,279.605 235.786 M70.456 235.600 C 70.456 235.930,70.611 236.560,70.800 237.000 C 71.017 237.504,71.144 237.578,71.144 237.200 C 71.144 236.870,70.989 236.240,70.800 235.800 C 70.583 235.296,70.456 235.222,70.456 235.600 M329.029 236.629 C 328.881 237.215,328.838 237.772,328.932 237.866 C 329.027 237.960,329.224 237.558,329.371 236.971 C 329.519 236.385,329.562 235.828,329.468 235.734 C 329.373 235.640,329.176 236.042,329.029 236.629 M122.000 240.000 C 122.449 240.880,122.906 241.600,123.016 241.600 C 123.126 241.600,122.849 240.880,122.400 240.000 C 121.951 239.120,121.494 238.400,121.384 238.400 C 121.274 238.400,121.551 239.120,122.000 240.000 M125.009 245.426 C 125.381 246.101,126.041 247.091,126.476 247.626 L 127.267 248.600 126.591 247.374 C 126.219 246.699,125.559 245.709,125.124 245.174 L 124.333 244.200 125.009 245.426 M128.791 251.188 C 129.257 251.841,129.842 252.502,130.091 252.656 C 130.341 252.811,130.041 252.276,129.425 251.468 C 128.088 249.715,127.584 249.492,128.791 251.188 M270.344 251.900 C 269.193 253.289,268.706 254.000,268.904 254.000 C 269.014 254.000,269.586 253.370,270.173 252.600 C 271.263 251.171,271.395 250.632,270.344 251.900 M131.130 254.300 C 131.561 254.905,132.328 255.760,132.834 256.200 C 133.340 256.640,133.051 256.145,132.192 255.100 C 130.473 253.008,129.903 252.579,131.130 254.300 M77.407 255.079 C 78.007 256.514,78.400 257.162,78.400 256.716 C 78.400 256.284,77.185 253.600,76.989 253.600 C 76.879 253.600,77.067 254.266,77.407 255.079 M264.386 259.100 L 262.200 261.400 264.500 259.214 C 266.637 257.182,266.983 256.800,266.686 256.800 C 266.624 256.800,265.589 257.835,264.386 259.100 M133.600 257.325 C 133.600 257.394,134.185 257.979,134.900 258.625 L 136.200 259.800 135.025 258.500 C 133.930 257.288,133.600 257.016,133.600 257.325 M141.687 265.405 C 142.504 266.260,143.238 266.879,143.317 266.780 C 143.397 266.681,142.728 265.981,141.831 265.225 L 140.200 263.850 141.687 265.405 " stroke="none" fill="#847c74" fill-rule="evenodd"></path></g></svg>